<svg width="646" height="646" viewBox="0 0 646 646" fill="none" xmlns="http://www.w3.org/2000/svg">
<g clip-path="url(#clip0_2_775)">
<rect width="646" height="646" fill="white"/>
<path d="M289.665 323.5L161.373 579.973" stroke="#D9D9D9" stroke-width="0.25" stroke-linecap="round" stroke-linejoin="round"/>
<path d="M190.169 323.5L0.000488281 418.667" stroke="#D9D9D9" stroke-width="0.25" stroke-linecap="round" stroke-linejoin="round"/>
<path d="M157.003 323.5L0.000488281 386.362" stroke="#D9D9D9" stroke-width="0.25" stroke-linecap="round" stroke-linejoin="round"/>
<path d="M123.841 323.5L0 364.822" stroke="#D9D9D9" stroke-width="0.25" stroke-linecap="round" stroke-linejoin="round"/>
<path d="M223.336 323.5L0 472.498" stroke="#D9D9D9" stroke-width="0.25" stroke-linecap="round" stroke-linejoin="round"/>
<path d="M90.675 323.5L0 349.434" stroke="#D9D9D9" stroke-width="0.25" stroke-linecap="round" stroke-linejoin="round"/>
<path d="M24.343 323.5L0 328.916" stroke="#D9D9D9" stroke-width="0.25" stroke-linecap="round" stroke-linejoin="round"/>
<path d="M57.509 323.5L0 337.892" stroke="#D9D9D9" stroke-width="0.25" stroke-linecap="round" stroke-linejoin="round"/>
<path d="M554.987 323.5L645.775 349.481" stroke="#D9D9D9" stroke-width="0.25" stroke-linecap="round" stroke-linejoin="round"/>
<path d="M322.831 323.5L322.609 579.973" stroke="#D9D9D9" stroke-width="0.25" stroke-linecap="round" stroke-linejoin="round"/>
<path d="M588.153 323.5L645.775 337.926" stroke="#D9D9D9" stroke-width="0.25" stroke-linecap="round" stroke-linejoin="round"/>
<path d="M621.315 323.5L645.774 328.943" stroke="#D9D9D9" stroke-width="0.25" stroke-linecap="round" stroke-linejoin="round"/>
<path d="M521.821 323.5L645.775 364.885" stroke="#D9D9D9" stroke-width="0.25" stroke-linecap="round" stroke-linejoin="round"/>
<path d="M488.655 323.5L645.775 386.449" stroke="#D9D9D9" stroke-width="0.25" stroke-linecap="round" stroke-linejoin="round"/>
<path d="M422.326 323.5L645.775 472.746" stroke="#D9D9D9" stroke-width="0.25" stroke-linecap="round" stroke-linejoin="round"/>
<path d="M455.492 323.5L645.775 418.807" stroke="#D9D9D9" stroke-width="0.25" stroke-linecap="round" stroke-linejoin="round"/>
<path d="M355.997 323.5L483.847 579.973" stroke="#D9D9D9" stroke-width="0.25" stroke-linecap="round" stroke-linejoin="round"/>
<path d="M256.499 323.5L0.137695 579.973" stroke="#D9D9D9" stroke-width="0.25" stroke-linecap="round" stroke-linejoin="round"/>
<path d="M389.16 323.5L645.082 579.973" stroke="#D9D9D9" stroke-width="0.25" stroke-linecap="round" stroke-linejoin="round"/>
<path d="M645.082 579.973H0.138184" stroke="#D9D9D9" stroke-width="0.25" stroke-linecap="round" stroke-linejoin="round"/>
<path d="M645.774 358.501H0.000488281" stroke="#D9D9D9" stroke-width="0.25" stroke-linecap="round" stroke-linejoin="round"/>
<path d="M645.774 335.029H0.000488281" stroke="#D9D9D9" stroke-width="0.25" stroke-linecap="round" stroke-linejoin="round"/>
<path d="M645.774 339.815H0.000488281" stroke="#D9D9D9" stroke-width="0.25" stroke-linecap="round" stroke-linejoin="round"/>
<path d="M645.774 345.228H0.000488281" stroke="#D9D9D9" stroke-width="0.25" stroke-linecap="round" stroke-linejoin="round"/>
<path d="M645.774 326.945H0.000488281" stroke="#D9D9D9" stroke-width="0.25" stroke-linecap="round" stroke-linejoin="round"/>
<path d="M645.774 330.767H0.000488281" stroke="#D9D9D9" stroke-width="0.25" stroke-linecap="round" stroke-linejoin="round"/>
<path d="M645.774 512.078H0.000488281" stroke="#D9D9D9" stroke-width="0.25" stroke-linecap="round" stroke-linejoin="round"/>
<path d="M645.774 366.758H0.000488281" stroke="#D9D9D9" stroke-width="0.25" stroke-linecap="round" stroke-linejoin="round"/>
<path d="M645.774 351.401H0.000488281" stroke="#D9D9D9" stroke-width="0.25" stroke-linecap="round" stroke-linejoin="round"/>
<path d="M645.774 323.5H0.000488281" stroke="#D9D9D9" stroke-width="0.25" stroke-linecap="round" stroke-linejoin="round"/>
<path d="M645.774 376.477H0.000488281" stroke="#D9D9D9" stroke-width="0.25" stroke-linecap="round" stroke-linejoin="round"/>
<path d="M645.774 388.087H0.000488281" stroke="#D9D9D9" stroke-width="0.25" stroke-linecap="round" stroke-linejoin="round"/>
<path d="M645.774 471.493H0.000488281" stroke="#D9D9D9" stroke-width="0.25" stroke-linecap="round" stroke-linejoin="round"/>
<path d="M645.774 402.201H0.000488281" stroke="#D9D9D9" stroke-width="0.25" stroke-linecap="round" stroke-linejoin="round"/>
<path d="M645.774 419.722H0.000488281" stroke="#D9D9D9" stroke-width="0.25" stroke-linecap="round" stroke-linejoin="round"/>
<path d="M645.774 442.054H0.000488281" stroke="#D9D9D9" stroke-width="0.25" stroke-linecap="round" stroke-linejoin="round"/>
</g>
<defs>
<clipPath id="clip0_2_775">
<rect width="646" height="646" fill="white"/>
</clipPath>
</defs>
</svg>
