<svg width="646" height="646" viewBox="0 0 646 646" fill="none" xmlns="http://www.w3.org/2000/svg">
<g clip-path="url(#clip0_2_775)">
<rect width="646" height="646" fill="white"/>
<path d="M280.823 323.633L118.386 648.366" stroke="#E9E9E9" stroke-width="0.25" stroke-linecap="round" stroke-linejoin="round"/>
<path d="M154.847 323.633L-85.9355 444.129" stroke="#E9E9E9" stroke-width="0.25" stroke-linecap="round" stroke-linejoin="round"/>
<path d="M112.854 323.633L-85.9355 403.226" stroke="#E9E9E9" stroke-width="0.25" stroke-linecap="round" stroke-linejoin="round"/>
<path d="M70.8648 323.633L-85.9365 375.953" stroke="#E9E9E9" stroke-width="0.25" stroke-linecap="round" stroke-linejoin="round"/>
<path d="M196.84 323.633L-85.9365 512.287" stroke="#E9E9E9" stroke-width="0.25" stroke-linecap="round" stroke-linejoin="round"/>
<path d="M28.8716 323.633L-85.9365 356.469" stroke="#E9E9E9" stroke-width="0.25" stroke-linecap="round" stroke-linejoin="round"/>
<path d="M616.761 323.633L731.712 356.529" stroke="#E9E9E9" stroke-width="0.25" stroke-linecap="round" stroke-linejoin="round"/>
<path d="M322.816 323.633L322.535 648.366" stroke="#E9E9E9" stroke-width="0.25" stroke-linecap="round" stroke-linejoin="round"/>
<path d="M574.768 323.633L731.712 376.033" stroke="#E9E9E9" stroke-width="0.25" stroke-linecap="round" stroke-linejoin="round"/>
<path d="M532.774 323.633L731.712 403.336" stroke="#E9E9E9" stroke-width="0.25" stroke-linecap="round" stroke-linejoin="round"/>
<path d="M448.792 323.633L731.712 512.601" stroke="#E9E9E9" stroke-width="0.25" stroke-linecap="round" stroke-linejoin="round"/>
<path d="M490.785 323.633L731.712 444.306" stroke="#E9E9E9" stroke-width="0.25" stroke-linecap="round" stroke-linejoin="round"/>
<path d="M364.809 323.633L526.686 648.366" stroke="#E9E9E9" stroke-width="0.25" stroke-linecap="round" stroke-linejoin="round"/>
<path d="M238.829 323.633L-85.7622 648.366" stroke="#E9E9E9" stroke-width="0.25" stroke-linecap="round" stroke-linejoin="round"/>
<path d="M406.798 323.633L730.834 648.366" stroke="#E9E9E9" stroke-width="0.25" stroke-linecap="round" stroke-linejoin="round"/>
<path d="M731.711 367.95H-85.936" stroke="#E9E9E9" stroke-width="0.25" stroke-linecap="round" stroke-linejoin="round"/>
<path d="M731.711 338.231H-85.936" stroke="#E9E9E9" stroke-width="0.25" stroke-linecap="round" stroke-linejoin="round"/>
<path d="M731.711 344.29H-85.936" stroke="#E9E9E9" stroke-width="0.25" stroke-linecap="round" stroke-linejoin="round"/>
<path d="M731.711 351.143H-85.936" stroke="#E9E9E9" stroke-width="0.25" stroke-linecap="round" stroke-linejoin="round"/>
<path d="M731.711 327.995H-85.936" stroke="#E9E9E9" stroke-width="0.25" stroke-linecap="round" stroke-linejoin="round"/>
<path d="M731.711 332.834H-85.936" stroke="#E9E9E9" stroke-width="0.25" stroke-linecap="round" stroke-linejoin="round"/>
<path d="M731.711 562.402H-85.936" stroke="#E9E9E9" stroke-width="0.25" stroke-linecap="round" stroke-linejoin="round"/>
<path d="M731.711 378.404H-85.936" stroke="#E9E9E9" stroke-width="0.25" stroke-linecap="round" stroke-linejoin="round"/>
<path d="M731.711 358.96H-85.936" stroke="#E9E9E9" stroke-width="0.25" stroke-linecap="round" stroke-linejoin="round"/>
<path d="M731.711 323.633H-85.936" stroke="#E9E9E9" stroke-width="0.25" stroke-linecap="round" stroke-linejoin="round"/>
<path d="M731.711 390.709H-85.936" stroke="#E9E9E9" stroke-width="0.25" stroke-linecap="round" stroke-linejoin="round"/>
<path d="M731.711 405.41H-85.936" stroke="#E9E9E9" stroke-width="0.25" stroke-linecap="round" stroke-linejoin="round"/>
<path d="M731.711 511.014H-85.936" stroke="#E9E9E9" stroke-width="0.25" stroke-linecap="round" stroke-linejoin="round"/>
<path d="M731.711 423.28H-85.936" stroke="#E9E9E9" stroke-width="0.25" stroke-linecap="round" stroke-linejoin="round"/>
<path d="M731.711 445.464H-85.936" stroke="#E9E9E9" stroke-width="0.25" stroke-linecap="round" stroke-linejoin="round"/>
<path d="M731.711 473.74H-85.936" stroke="#E9E9E9" stroke-width="0.25" stroke-linecap="round" stroke-linejoin="round"/>
</g>
<defs>
<clipPath id="clip0_2_775">
<rect width="646" height="646" fill="white"/>
</clipPath>
</defs>
</svg>
