<svg width="24" height="24" viewBox="0 0 24 24" fill="none" xmlns="http://www.w3.org/2000/svg">
<path d="M12.6836 7.03369L10.7764 8.94092C11.2822 8.99561 11.7402 9.11523 12.1504 9.2998C12.5674 9.47754 12.9126 9.70654 13.186 9.98682C13.7397 10.5337 14.1089 11.1387 14.2935 11.8018C14.478 12.458 14.478 13.1143 14.2935 13.7705C14.1157 14.4268 13.7534 15.0283 13.2065 15.5752L9.69971 19.0718C9.15283 19.6187 8.55127 19.981 7.89502 20.1587C7.23877 20.3433 6.58252 20.3433 5.92627 20.1587C5.27002 19.981 4.66846 19.6187 4.12158 19.0718C3.56787 18.5181 3.19873 17.9131 3.01416 17.2568C2.82959 16.5938 2.82617 15.9375 3.00391 15.2881C3.18848 14.6318 3.5542 14.0269 4.10107 13.4731L5.42383 12.1606C5.22559 11.7095 5.09229 11.207 5.02393 10.6533C4.9624 10.0996 5.00684 9.56982 5.15723 9.06396L2.32715 11.8633C1.45215 12.7314 0.867676 13.6953 0.57373 14.7549C0.286621 15.8145 0.290039 16.874 0.583984 17.9336C0.87793 18.9932 1.4624 19.9604 2.3374 20.8354C3.21924 21.7241 4.18994 22.312 5.24951 22.5991C6.30908 22.8931 7.36523 22.8931 8.41797 22.5991C9.47754 22.3052 10.4414 21.7241 11.3096 20.856L14.9805 17.1851C15.8555 16.3169 16.4365 15.353 16.7236 14.2935C17.0176 13.2339 17.0176 12.1743 16.7236 11.1147C16.4365 10.0552 15.8521 9.08789 14.9702 8.21289C14.7104 7.95312 14.3857 7.7207 13.9961 7.51562C13.6064 7.30371 13.1689 7.14307 12.6836 7.03369ZM10.6328 16.0161L12.5298 14.1191C12.0239 14.0576 11.5659 13.938 11.1558 13.7603C10.7456 13.5757 10.4004 13.3467 10.1201 13.0732C9.56641 12.5195 9.19727 11.9146 9.0127 11.2583C8.82812 10.5952 8.82812 9.93896 9.0127 9.28955C9.19727 8.6333 9.56299 8.03174 10.1099 7.48486L13.6064 3.98828C14.1602 3.43457 14.7651 3.06885 15.4214 2.89111C16.0776 2.70654 16.7305 2.70654 17.3799 2.89111C18.0361 3.07568 18.6411 3.44141 19.1948 3.98828C19.7417 4.54199 20.1074 5.14697 20.292 5.80322C20.4766 6.45947 20.4766 7.11572 20.292 7.77197C20.1143 8.42822 19.752 9.02979 19.2051 9.57666L17.8926 10.8892C18.0908 11.3472 18.2207 11.853 18.2822 12.4067C18.3506 12.9536 18.3096 13.4834 18.1592 13.9961L20.9893 11.1865C21.8643 10.3184 22.4453 9.35791 22.7324 8.30518C23.0264 7.24561 23.0264 6.18604 22.7324 5.12646C22.4385 4.06689 21.854 3.09619 20.979 2.21436C20.0903 1.33252 19.1162 0.748047 18.0566 0.460938C17.0039 0.166992 15.9478 0.166992 14.8882 0.460938C13.8354 0.748047 12.8716 1.3291 11.9966 2.2041L8.33594 5.86475C7.46094 6.73975 6.87646 7.70703 6.58252 8.7666C6.29541 9.81934 6.29541 10.8755 6.58252 11.9351C6.87646 12.9946 7.46436 13.9619 8.34619 14.8369C8.60596 15.1035 8.93066 15.3428 9.32031 15.5547C9.70996 15.7598 10.1475 15.9136 10.6328 16.0161Z" fill="#ACACAC"/>
</svg>
