<svg width="12" height="12" viewBox="0 0 12 12" fill="none" xmlns="http://www.w3.org/2000/svg">
<rect width="12" height="12" rx="1" fill="black"/>
<path d="M1 10.6V1.4C1 1.17909 1.17909 1 1.4 1H3.1C3.32091 1 3.5 1.17909 3.5 1.4V9C3.83333 7.33333 5.2 3.9 8 3.5C10.7304 3.10994 8.61114 8.07676 7.1132 10.7966C7.04348 10.9232 6.91057 11 6.76606 11H4.82361C4.67493 11 4.57772 10.8443 4.6432 10.7108C5.49918 8.96606 6.87807 5.87807 6.5 5.5C6.11577 5.11577 4.47047 8.69925 3.60275 10.755C3.53995 10.9038 3.39481 11 3.23333 11H1.4C1.17909 11 1 10.8209 1 10.6Z" fill="white"/>
</svg>
